<svg xmlns="http://www.w3.org/2000/svg" width="178.192" height="177.972" viewBox="0 0 178.192 177.972">
  <g id="Ikon" transform="translate(-2.007 -2.035)">
    <path id="Path_13164" data-name="Path 13164" d="M180.2,90.932A12.994,12.994,0,0,0,175.362,80.8l-11.479-9.561,5.256-13.676A13.107,13.107,0,0,0,159.007,40.02l-14.724-2.542L142,23.006A13.108,13.108,0,0,0,124.45,12.873l-14.021,5.166L101.213,6.65a13.43,13.43,0,0,0-20.266,0L71.386,18.126,57.714,12.873A13.108,13.108,0,0,0,40.165,23.006L37.625,37.732,23.16,40.014A13.114,13.114,0,0,0,13.021,57.563l5.166,14.024L6.792,80.8A13.115,13.115,0,0,0,6.8,101.065l11.479,9.561L13.021,124.3a13.107,13.107,0,0,0,10.133,17.543l14.724,2.542,2.288,14.472a13.112,13.112,0,0,0,17.546,10.133l14.021-5.166,9.216,11.388a13.108,13.108,0,0,0,20.266,0l9.561-11.475,13.673,5.253A13.11,13.11,0,0,0,142,158.859l2.539-14.727L159,141.851A13.114,13.114,0,0,0,169.14,124.3l-5.166-14.024,11.394-9.213a13.007,13.007,0,0,0,4.83-10.133Z" transform="translate(0 0)" fill="#17d33b"/>
    <path id="Path_13165" data-name="Path 13165" d="M41.161,93.247A18.4,18.4,0,0,1,28.883,88.43L12.24,73.678A9.1,9.1,0,0,1,10.872,62.34c2.271-3.578,6.567-4.3,9.594-1.617L37.1,75.474c3,2.62,7.216,1.951,9.524-1.511l39.7-60.336c2.325-3.532,6.633-4.168,9.621-1.42a9.125,9.125,0,0,1,1.2,11.37L57.448,83.914c-3.921,5.913-9.931,9.357-16.287,9.333Z" transform="translate(37.034 36.967)" fill="#f5f5f5"/>
  </g>
</svg>
